<svg width="23" height="22" viewBox="0 0 23 22" fill="none" xmlns="http://www.w3.org/2000/svg">
<path d="M21.0174 1.89995H18.6291V0H17.7885V1.89995H15.6161V0H14.7755V1.89995H7.26142V0H6.42103V1.89995H4.24849V0H3.40792V1.89995H1.02879C0.893878 1.8996 0.760364 1.92599 0.635762 1.97754C0.510985 2.02892 0.397746 2.10459 0.302155 2.20018C0.206565 2.2956 0.130722 2.40919 0.0788174 2.53414C0.027092 2.65909 0.00017788 2.79295 3.40438e-06 2.92839V20.5124C-0.000346084 20.648 0.026217 20.7824 0.0777706 20.9079C0.129496 21.0334 0.205169 21.1473 0.300759 21.2432C0.39635 21.3393 0.509942 21.4154 0.634715 21.4673C0.759666 21.519 0.89353 21.5456 1.02879 21.5454H21.0174C21.1527 21.5456 21.2866 21.519 21.4115 21.4673C21.5363 21.4154 21.6499 21.3393 21.7455 21.2432C21.8411 21.1473 21.9169 21.0334 21.9685 20.9079C22.02 20.7824 22.0466 20.648 22.0462 20.5124V2.92839C22.0461 2.79295 22.0191 2.65909 21.9674 2.53414C21.9155 2.40919 21.8397 2.2956 21.7441 2.20018C21.6485 2.10459 21.5352 2.02892 21.4105 1.97754C21.2859 1.92599 21.1524 1.8996 21.0174 1.89995ZM21.2196 20.5125C21.2191 20.5661 21.1976 20.6175 21.1599 20.6554C21.1221 20.6934 21.0709 20.7149 21.0174 20.7154H1.02879C0.975314 20.7148 0.924112 20.6934 0.886363 20.6554C0.848613 20.6175 0.827121 20.5661 0.826598 20.5125V6.76514H21.2197L21.2196 20.5125ZM21.2196 5.91647H0.826553V2.92815C0.827252 2.87502 0.848922 2.82417 0.886846 2.78712C0.924768 2.7499 0.975797 2.72928 1.02875 2.72998H3.40788V4.28389H4.24845V2.72998H6.42099V4.28389H7.26138V2.72998H14.7755V4.28389H15.616V2.72998H17.7884V4.28389H18.629V2.72998H21.0174C21.0704 2.72928 21.1214 2.7499 21.1593 2.78712C21.1972 2.82417 21.2189 2.87502 21.2196 2.92815L21.2196 5.91647Z" fill="#4E4E4E"/>
<path d="M18.6401 10.2036H15.6371V11.0489H18.6401V10.2036Z" fill="#4E4E4E"/>
<path d="M12.7783 10.1665H9.77545V11.0118H12.7783V10.1665Z" fill="#4E4E4E"/>
<path d="M5.36791 8.99752C5.68317 8.99752 5.99128 9.09137 6.25322 9.26699C6.51536 9.4428 6.71948 9.6927 6.84022 9.98507C6.9608 10.2774 6.99226 10.5992 6.93092 10.9095C6.8694 11.2199 6.71754 11.5049 6.49473 11.7286C6.27191 11.9525 5.98794 12.1049 5.67881 12.1666C5.36984 12.2282 5.04935 12.1966 4.7582 12.0755C4.46706 11.9544 4.21822 11.7492 4.04312 11.4862C3.86801 11.2231 3.77452 10.9137 3.77452 10.5974C3.77505 10.1731 3.94316 9.76648 4.2418 9.46661C4.54045 9.16673 4.94552 8.99789 5.36793 8.99758L5.36791 8.99752ZM5.36791 8.21341C4.89835 8.21341 4.43944 8.35321 4.04888 8.61517C3.65847 8.87713 3.35424 9.24955 3.1744 9.68502C2.99475 10.1207 2.94774 10.6 3.03931 11.0624C3.13106 11.5248 3.35719 11.9497 3.68921 12.2829C4.02125 12.6164 4.44433 12.8433 4.90482 12.9355C5.3653 13.0274 5.84273 12.9802 6.27664 12.7999C6.71038 12.6193 7.0812 12.3139 7.34211 11.9217C7.60302 11.5297 7.7423 11.0689 7.7423 10.5974C7.7423 9.96512 7.49204 9.3587 7.04676 8.91168C6.60166 8.46466 5.99772 8.21338 5.36791 8.21338L5.36791 8.21341Z" fill="#4E4E4E"/>
<path d="M6.0043 10.1685H4.75201V11.0138H6.0043V10.1685Z" fill="#4E4E4E"/>
<path d="M18.6401 12.9707H15.6371V13.816H18.6401V12.9707Z" fill="#4E4E4E"/>
<path d="M12.7783 12.9336H9.77545V13.7789H12.7783V12.9336Z" fill="#4E4E4E"/>
<path d="M18.6401 15.7378H15.6371V16.5831H18.6401V15.7378Z" fill="#4E4E4E"/>
<path d="M12.7783 15.7002H9.77545V16.5455H12.7783V15.7002Z" fill="#4E4E4E"/>
<path d="M6.8537 15.7432H3.85071V16.5885H6.8537V15.7432Z" fill="#4E4E4E"/>
</svg>
